<?xml version="1.0" standalone="no"?>
<!DOCTYPE svg PUBLIC "-//W3C//DTD SVG 20010904//EN"
 "http://www.w3.org/TR/2001/REC-SVG-20010904/DTD/svg10.dtd">
<svg version="1.0" xmlns="http://www.w3.org/2000/svg"
 width="260.000000pt" height="261.000000pt" viewBox="0 0 260.000000 261.000000"
 preserveAspectRatio="xMidYMid meet">

<g transform="translate(0.000000,261.000000) scale(0.100000,-0.100000)"
fill="#000000" stroke="none">
<path d="M365 2366 c-27 -7 -63 -18 -78 -25 -19 -7 -34 -8 -47 -1 -75 40 -166
-33 -220 -177 -33 -89 -23 -149 30 -181 18 -11 42 -43 60 -79 18 -36 54 -83
90 -117 127 -121 268 -152 414 -92 l70 29 140 -72 c78 -39 149 -71 159 -71 29
0 56 18 72 50 20 38 19 76 -4 126 -15 34 -36 52 -117 103 -92 57 -96 61 -64
61 19 0 72 -5 118 -12 100 -14 126 -4 144 53 10 34 8 44 -13 85 -35 67 -72 83
-243 105 -77 10 -144 19 -148 19 -5 0 -8 10 -9 23 -2 74 -64 149 -142 172 -60
18 -143 18 -212 1z m200 -30 c60 -18 102 -58 116 -109 6 -21 8 -41 5 -44 -10
-10 -79 23 -119 57 l-41 35 19 -33 c42 -71 102 -94 300 -117 71 -9 146 -20
166 -25 42 -11 74 -43 90 -88 9 -27 8 -37 -6 -58 -14 -22 -22 -25 -53 -21
-145 20 -404 39 -413 30 -7 -7 9 -12 50 -17 50 -6 79 -18 178 -78 141 -84 160
-100 175 -149 13 -47 -4 -97 -36 -105 -14 -3 -70 20 -167 70 -99 50 -171 80
-223 91 -92 21 -121 15 -46 -10 30 -9 59 -21 63 -25 16 -15 -87 -45 -153 -45
-125 0 -270 96 -331 221 -38 76 -40 121 -10 201 46 122 112 184 228 214 84 22
145 23 208 5z m-345 -24 c0 -5 -14 -21 -31 -38 -39 -36 -96 -148 -110 -214
-12 -56 -24 -63 -40 -22 -32 83 78 282 156 282 14 0 25 -4 25 -8z"/>
<path d="M210 2186 c0 -19 128 -62 142 -48 12 12 4 17 -68 42 -68 24 -74 24
-74 6z"/>
<path d="M180 2106 c0 -15 156 -96 184 -96 36 0 11 21 -77 64 -103 51 -107 52
-107 32z"/>
<path d="M160 2035 c0 -15 99 -95 118 -95 7 0 12 7 12 15 0 8 -4 15 -9 15 -4
0 -29 18 -54 40 -48 42 -67 50 -67 25z"/>
<path d="M2024 2031 c-42 -19 -86 -68 -99 -108 -5 -17 -14 -23 -35 -23 -41 0
-77 -16 -105 -46 -31 -34 -34 -106 -6 -143 18 -24 18 -25 -6 -60 -42 -61 -19
-152 48 -189 16 -10 32 -27 35 -40 8 -30 56 -69 102 -82 54 -15 179 -12 245 5
64 17 158 62 199 97 15 13 41 41 56 62 17 22 43 44 62 50 54 18 75 56 75 134
0 95 -28 177 -76 225 -36 36 -43 39 -79 34 -35 -4 -48 0 -91 29 -101 68 -243
92 -325 55z m187 -27 c104 -31 192 -93 226 -158 26 -49 43 -126 43 -192 0 -49
-5 -68 -28 -105 -79 -123 -237 -196 -408 -187 -89 5 -141 27 -155 66 -8 21 -6
22 39 23 92 2 103 15 17 23 -44 3 -91 10 -105 14 -34 10 -64 72 -56 116 10 50
28 61 105 58 88 -3 112 13 31 21 -96 10 -129 35 -130 98 0 25 7 42 25 59 22
21 36 24 113 25 92 2 121 11 177 60 l30 26 -50 -24 c-61 -30 -135 -44 -135
-27 0 29 46 83 84 101 51 23 106 24 177 3z m282 -104 c32 -25 66 -113 73 -189
4 -43 1 -64 -13 -90 -31 -60 -43 -51 -43 31 0 83 -20 162 -56 226 -23 39 -24
42 -6 42 11 0 31 -9 45 -20z"/>
<path d="M2321 1801 c-72 -8 -81 -31 -13 -31 67 0 114 10 109 24 -4 13 -25 15
-96 7z"/>
<path d="M2302 1696 c-81 -20 -109 -44 -46 -38 56 5 167 37 172 50 5 17 -28
14 -126 -12z"/>
<path d="M2350 1620 c-30 -16 -59 -31 -65 -33 -7 -3 -7 -8 0 -15 13 -14 145
45 145 65 0 19 -18 15 -80 -17z"/>
<path d="M1075 1232 c-30 -14 -65 -49 -128 -130 -84 -106 -211 -242 -227 -242
-4 0 -10 22 -12 49 -6 59 -35 118 -72 145 -21 16 -42 21 -91 21 -114 0 -132
-51 -66 -191 l32 -67 -13 -99 c-10 -81 -15 -99 -31 -104 -27 -9 -50 -70 -42
-113 20 -108 142 -241 221 -241 11 0 30 7 42 16 16 11 50 16 120 17 89 2 103
5 172 38 41 20 95 52 119 73 55 46 136 91 276 152 131 57 155 75 155 121 0 27
-6 37 -32 53 -40 24 -75 25 -163 5 -37 -9 -72 -14 -79 -12 -6 2 43 39 109 83
136 90 150 110 122 170 -21 44 -92 79 -143 71 -19 -3 -75 -29 -125 -57 -50
-28 -93 -50 -95 -47 -2 2 20 36 49 76 28 39 59 86 68 102 47 84 -65 158 -166
111z m102 -23 c57 -21 57 -57 0 -131 -56 -72 -180 -264 -195 -303 -12 -30 -12
-30 15 5 53 68 100 106 213 170 126 72 168 80 216 44 64 -47 59 -68 -32 -128
-128 -85 -237 -171 -270 -214 -47 -63 -43 -75 10 -23 42 41 49 44 162 67 66
13 130 24 143 24 46 0 80 -54 49 -77 -7 -5 -81 -40 -164 -77 -101 -45 -176
-87 -227 -125 -100 -76 -179 -111 -265 -118 -100 -8 -147 8 -209 73 -99 104
-116 166 -92 339 11 79 10 81 -20 149 -17 37 -34 86 -37 107 -6 35 -4 39 20
49 65 24 134 -1 162 -58 10 -20 20 -67 22 -104 3 -55 7 -68 21 -68 27 0 146
115 245 238 104 130 120 146 156 161 33 13 43 13 77 0z m-638 -758 c18 -28 58
-73 88 -101 42 -38 51 -51 39 -56 -48 -19 -147 64 -192 159 -28 62 -30 84 -7
116 l16 24 12 -45 c6 -25 26 -68 44 -97z"/>
<path d="M632 582 c-49 -44 -65 -72 -41 -72 20 0 115 98 104 109 -7 6 -28 -7
-63 -37z"/>
<path d="M720 529 c-47 -33 -86 -65 -88 -70 -9 -23 36 -5 104 42 81 56 91 66
77 80 -5 5 -44 -17 -93 -52z"/>
<path d="M817 474 c-3 -3 -34 -16 -69 -29 -35 -13 -63 -29 -63 -36 0 -8 8 -13
20 -11 31 5 135 54 135 63 0 11 -16 20 -23 13z"/>
</g>
</svg>
